<mxfile host="app.diagrams.net" modified="2023-11-26T15:00:05.930Z" agent="Mozilla/5.0 (Windows NT 10.0; Win64; x64) AppleWebKit/537.36 (KHTML, like Gecko) Chrome/119.0.0.0 Safari/537.36 Edg/119.0.0.0" etag="0mODNGxf4PahuW4WOWfF" version="22.1.4" type="github">
  <diagram name="第 1 页" id="fm2WvBip6uHV08lmMWYd">
    <mxGraphModel dx="1129" dy="887" grid="1" gridSize="10" guides="1" tooltips="1" connect="1" arrows="1" fold="1" page="1" pageScale="1" pageWidth="827" pageHeight="1169" math="0" shadow="0">
      <root>
        <mxCell id="0" />
        <mxCell id="1" parent="0" />
        <mxCell id="VKcfBSEc3Eutq0mRKDCm-13" value="" style="group" vertex="1" connectable="0" parent="1">
          <mxGeometry x="110" y="80" width="616" height="440" as="geometry" />
        </mxCell>
        <mxCell id="VKcfBSEc3Eutq0mRKDCm-3" value="" style="group" vertex="1" connectable="0" parent="VKcfBSEc3Eutq0mRKDCm-13">
          <mxGeometry x="90" y="40" width="440" height="360" as="geometry" />
        </mxCell>
        <mxCell id="VKcfBSEc3Eutq0mRKDCm-1" value="" style="endArrow=classic;startArrow=classic;html=1;rounded=0;strokeWidth=3;" edge="1" parent="VKcfBSEc3Eutq0mRKDCm-3">
          <mxGeometry width="50" height="50" relative="1" as="geometry">
            <mxPoint y="180" as="sourcePoint" />
            <mxPoint x="440" y="180" as="targetPoint" />
          </mxGeometry>
        </mxCell>
        <mxCell id="VKcfBSEc3Eutq0mRKDCm-2" value="" style="endArrow=classic;startArrow=classic;html=1;rounded=0;strokeWidth=3;" edge="1" parent="VKcfBSEc3Eutq0mRKDCm-3">
          <mxGeometry width="50" height="50" relative="1" as="geometry">
            <mxPoint x="220" y="360" as="sourcePoint" />
            <mxPoint x="220" as="targetPoint" />
          </mxGeometry>
        </mxCell>
        <mxCell id="VKcfBSEc3Eutq0mRKDCm-9" value="&lt;h5&gt;&lt;/h5&gt;&lt;h4&gt;安全型&lt;/h4&gt;&lt;p&gt;对亲密关系和互相依赖安心；乐观、好交际&lt;/p&gt;" style="text;html=1;strokeColor=none;fillColor=none;align=center;verticalAlign=middle;whiteSpace=wrap;rounded=0;" vertex="1" parent="VKcfBSEc3Eutq0mRKDCm-3">
          <mxGeometry x="36" y="60" width="132" height="80" as="geometry" />
        </mxCell>
        <mxCell id="VKcfBSEc3Eutq0mRKDCm-10" value="&lt;h5&gt;&lt;/h5&gt;&lt;h4&gt;痴迷型&lt;/h4&gt;&lt;p&gt;对有损亲密关系的任何威胁都不安和警惕；贪婪、嫉妒&lt;/p&gt;" style="text;html=1;strokeColor=none;fillColor=none;align=center;verticalAlign=middle;whiteSpace=wrap;rounded=0;" vertex="1" parent="VKcfBSEc3Eutq0mRKDCm-3">
          <mxGeometry x="266" y="60" width="132" height="80" as="geometry" />
        </mxCell>
        <mxCell id="VKcfBSEc3Eutq0mRKDCm-11" value="&lt;h5&gt;&lt;/h5&gt;&lt;h4&gt;疏离型&lt;/h4&gt;&lt;p&gt;自立，漠视亲密关系；冷淡、独立&lt;/p&gt;" style="text;html=1;strokeColor=none;fillColor=none;align=center;verticalAlign=middle;whiteSpace=wrap;rounded=0;" vertex="1" parent="VKcfBSEc3Eutq0mRKDCm-3">
          <mxGeometry x="36" y="220" width="132" height="80" as="geometry" />
        </mxCell>
        <mxCell id="VKcfBSEc3Eutq0mRKDCm-12" value="&lt;h5&gt;&lt;/h5&gt;&lt;h4&gt;恐惧型&lt;/h4&gt;&lt;p&gt;害怕被遗弃，不信任他人；猜忌多疑、害羞&lt;/p&gt;" style="text;html=1;strokeColor=none;fillColor=none;align=center;verticalAlign=middle;whiteSpace=wrap;rounded=0;" vertex="1" parent="VKcfBSEc3Eutq0mRKDCm-3">
          <mxGeometry x="266" y="220" width="132" height="80" as="geometry" />
        </mxCell>
        <mxCell id="VKcfBSEc3Eutq0mRKDCm-4" value="低&lt;br style=&quot;font-size: 13px;&quot;&gt;（忧虑被弃）" style="text;html=1;strokeColor=none;fillColor=none;align=center;verticalAlign=middle;whiteSpace=wrap;rounded=0;strokeWidth=0;fontSize=13;" vertex="1" parent="VKcfBSEc3Eutq0mRKDCm-13">
          <mxGeometry y="202.5" width="90" height="35" as="geometry" />
        </mxCell>
        <mxCell id="VKcfBSEc3Eutq0mRKDCm-5" value="高&lt;br style=&quot;font-size: 13px;&quot;&gt;（忧虑被弃）" style="text;html=1;strokeColor=none;fillColor=none;align=center;verticalAlign=middle;whiteSpace=wrap;rounded=0;strokeWidth=0;fontSize=13;" vertex="1" parent="VKcfBSEc3Eutq0mRKDCm-13">
          <mxGeometry x="526" y="202.5" width="90" height="35" as="geometry" />
        </mxCell>
        <mxCell id="VKcfBSEc3Eutq0mRKDCm-6" value="&lt;span style=&quot;font-size: 13px; background-color: initial;&quot;&gt;低&lt;/span&gt;&lt;br&gt;&lt;span style=&quot;font-size: 13px; background-color: initial;&quot;&gt;（回避亲密）&lt;/span&gt;" style="text;html=1;strokeColor=none;fillColor=none;align=center;verticalAlign=middle;whiteSpace=wrap;rounded=0;" vertex="1" parent="VKcfBSEc3Eutq0mRKDCm-13">
          <mxGeometry x="268" width="84" height="30" as="geometry" />
        </mxCell>
        <mxCell id="VKcfBSEc3Eutq0mRKDCm-7" value="&lt;span style=&quot;font-size: 13px;&quot;&gt;高&lt;/span&gt;&lt;br&gt;&lt;span style=&quot;font-size: 13px; background-color: initial;&quot;&gt;（回避亲密）&lt;/span&gt;" style="text;html=1;strokeColor=none;fillColor=none;align=center;verticalAlign=middle;whiteSpace=wrap;rounded=0;" vertex="1" parent="VKcfBSEc3Eutq0mRKDCm-13">
          <mxGeometry x="262" y="410" width="96" height="30" as="geometry" />
        </mxCell>
        <mxCell id="VKcfBSEc3Eutq0mRKDCm-8" style="edgeStyle=orthogonalEdgeStyle;rounded=0;orthogonalLoop=1;jettySize=auto;html=1;exitX=0.5;exitY=1;exitDx=0;exitDy=0;" edge="1" parent="VKcfBSEc3Eutq0mRKDCm-13" source="VKcfBSEc3Eutq0mRKDCm-7" target="VKcfBSEc3Eutq0mRKDCm-7">
          <mxGeometry relative="1" as="geometry" />
        </mxCell>
      </root>
    </mxGraphModel>
  </diagram>
</mxfile>
